<?xml version="1.0" encoding="UTF-8" standalone="no"?>
<!-- Created with Inkscape (http://www.inkscape.org/) -->

<svg
   xmlns:dc="http://purl.org/dc/elements/1.1/"
   xmlns:cc="http://creativecommons.org/ns#"
   xmlns:rdf="http://www.w3.org/1999/02/22-rdf-syntax-ns#"
   xmlns:svg="http://www.w3.org/2000/svg"
   xmlns="http://www.w3.org/2000/svg"
   xmlns:sodipodi="http://sodipodi.sourceforge.net/DTD/sodipodi-0.dtd"
   xmlns:inkscape="http://www.inkscape.org/namespaces/inkscape"
   width="400"
   height="400"
   id="svg2"
   version="1.1"
   inkscape:version="0.48.4 r9939"
   sodipodi:docname="quin.svg">
  <defs
     id="defs4" />
  <sodipodi:namedview
     id="base"
     pagecolor="#ffffff"
     bordercolor="#666666"
     borderopacity="1.0"
     inkscape:pageopacity="0.0"
     inkscape:pageshadow="2"
     inkscape:zoom="1.4"
     inkscape:cx="178.27833"
     inkscape:cy="238.81659"
     inkscape:document-units="px"
     inkscape:current-layer="g3885"
     showgrid="false"
     inkscape:window-width="1846"
     inkscape:window-height="1058"
     inkscape:window-x="-8"
     inkscape:window-y="-8"
     inkscape:window-maximized="1"
     fit-margin-top="0"
     fit-margin-left="0"
     fit-margin-right="0"
     fit-margin-bottom="0"
     inkscape:showpageshadow="false"
     borderlayer="true" />
  <metadata
     id="metadata7">
    <rdf:RDF>
      <cc:Work
         rdf:about="">
        <dc:format>image/svg+xml</dc:format>
        <dc:type
           rdf:resource="http://purl.org/dc/dcmitype/StillImage" />
        <dc:title></dc:title>
      </cc:Work>
    </rdf:RDF>
  </metadata>
  <g
     inkscape:label="Layer 1"
     inkscape:groupmode="layer"
     id="layer1"
     transform="translate(1009.6875,-298.65625)">
    <g
       id="g3855"
       transform="matrix(0.95579044,0,0,0.95579044,-25.491478,27.013115)">
      <g
         id="g3885"
         transform="translate(2.1137532,8.4550128)">
        <g
           id="g3930"
           transform="translate(-50.818073,49.323424)">
          <path
             sodipodi:nodetypes="ccscccsccsc"
             inkscape:connector-curvature="0"
             id="path3028"
             d="m -646.26765,535.6668 c 36.42256,-83.6491 -0.71396,-176.11202 -98.54172,-210.45936 -15.94643,-5.71095 34.02245,27.51125 48.15783,44.04774 34.98175,40.92393 45.28147,102.91496 27.14672,147.29048 m -24.98537,32.69985 c -11.70905,9.88113 -22.40877,16.21737 -45.2497,19.81576 -219.78153,16.75749 -183.57515,-177.6133 -47.95797,-246.50473 34.98481,-17.77174 40.99545,-26.79703 37.0355,-30.89703 -4.44299,-5.02161 -27.6605,1.8512 -32.12325,4.18381 -256.15399,113.7575 -179.81781,361.27781 26.342,317.03525 34.12968,-7.32434 58.80604,-18.58436 86.83546,-44.87996"
             style="font-size:medium;font-style:normal;font-variant:normal;font-weight:normal;font-stretch:normal;text-indent:0;text-align:start;text-decoration:none;line-height:normal;letter-spacing:normal;word-spacing:normal;text-transform:none;direction:ltr;block-progression:tb;writing-mode:lr-tb;text-anchor:start;baseline-shift:baseline;color:#000000;fill:#000000;fill-opacity:1;stroke:none;stroke-width:30;marker:none;visibility:visible;display:inline;overflow:visible;enable-background:accumulate;font-family:Sans;-inkscape-font-specification:Sans"
             transform="matrix(1.0462544,0,0,1.0462544,24.556819,-36.717605)" />
          <g
             id="g3907">
            <path
               style="fill:none;stroke:#000000;stroke-width:3.13876343;stroke-linecap:round;stroke-linejoin:round;stroke-miterlimit:4;stroke-opacity:1;stroke-dasharray:none"
               d="m -787.4699,418.6425 c -32.51882,12.71201 -26.8718,54.38775 -1.09293,72.77398 m 6.8302,3.83427 c 6.69449,3.47454 13.57455,5.18123 22.08375,5.00516 32.88094,-0.68034 51.48838,-30.80311 33.46383,-56.57583 m -5.93885,-6.99283 c -6.33715,-6.26402 -15.16633,-12.04718 -26.85297,-16.79716"
               id="path3016"
               inkscape:connector-curvature="0"
               sodipodi:nodetypes="cccsccc" />
            <path
               style="fill:none;stroke:#000000;stroke-width:2.09250879;stroke-linecap:round;stroke-linejoin:round;stroke-miterlimit:4;stroke-opacity:1;stroke-dasharray:none"
               d="m -726.96118,442.82235 c -3.06671,9.55741 -40.91086,48.33105 -55.43474,51.96733 -3.08355,0.77201 -5.82958,-0.0398 -6.17314,-3.05128 20.39812,-14.06752 40.3096,-31.858 56.0692,-54.69389 1.621,-2.35352 8.4525,1.73142 5.53868,5.77784 z"
               id="path3020"
               inkscape:connector-curvature="0"
               sodipodi:nodetypes="csccc" />
            <path
               style="fill:none;stroke:#000000;stroke-width:3.13876343;stroke-linecap:round;stroke-linejoin:round;stroke-miterlimit:4;stroke-opacity:1;stroke-dasharray:none"
               d="m -743.49251,506.62735 c 47.90683,34.36315 92.07054,73.31846 148.35054,102.89694 10.94578,-1.30187 15.46787,-9.04776 17.03642,-18.38725 -38.40915,-42.56817 -91.54876,-80.79673 -132.89443,-115.87795"
               id="path3024"
               inkscape:connector-curvature="0"
               sodipodi:nodetypes="cccc" />
            <path
               style="fill:#000000;fill-opacity:1;stroke:#000000;stroke-width:2.09250879;stroke-linecap:round;stroke-linejoin:round;stroke-miterlimit:4;stroke-opacity:1;stroke-dasharray:none"
               d="m -754.27284,499.73607 c 10.6035,22.7643 58.77985,-20.60084 37.0947,-32.74932 -5.11171,26.3459 -19.9259,32.05205 -37.0947,32.74932 z"
               id="path3022"
               inkscape:connector-curvature="0"
               sodipodi:nodetypes="ccc" />
            <path
               style="fill:none;stroke:#000000;stroke-width:2.09250879;stroke-linecap:round;stroke-linejoin:round;stroke-miterlimit:4;stroke-opacity:1;stroke-dasharray:none"
               d="m -685.32508,514.0834 c -31.29927,3.91986 15.48674,38.09043 24.461,34.82865 2.02547,-0.73617 8.74028,-11.48337 6.72005,-13.8275 -4.54834,-5.27756 -19.44483,-14.66727 -24.87707,-20.03664"
               id="path3026"
               inkscape:connector-curvature="0"
               sodipodi:nodetypes="cssc" />
            <path
               sodipodi:nodetypes="cc"
               style="fill:none;stroke:#000000;stroke-width:1.0462544px;stroke-linecap:butt;stroke-linejoin:miter;stroke-opacity:1"
               d="m -787.5236,424.69211 c -3.72592,18.40434 -1.73438,35.06345 0.90859,53.4637"
               id="path3811"
               inkscape:connector-curvature="0" />
            <path
               sodipodi:nodetypes="cc"
               style="fill:none;stroke:#000000;stroke-width:1.0462544px;stroke-linecap:butt;stroke-linejoin:miter;stroke-opacity:1"
               d="m -775.59085,425.2249 c 0.86735,15.16861 -0.52809,33.22787 2.28086,46.6086"
               id="path3813"
               inkscape:connector-curvature="0" />
            <path
               sodipodi:nodetypes="cc"
               style="fill:none;stroke:#000000;stroke-width:1.0462544px;stroke-linecap:butt;stroke-linejoin:miter;stroke-opacity:1"
               d="m -761.60908,426.46083 c -0.6608,12.131 -0.97586,22.85836 0.7791,35.58133"
               id="path3815"
               inkscape:connector-curvature="0" />
            <path
               style="fill:none;stroke:#000000;stroke-width:1.0462544px;stroke-linecap:butt;stroke-linejoin:miter;stroke-opacity:1"
               d="m -756.58367,482.86078 c 0.66774,4.71087 0.68586,9.77394 1.33051,14.26193"
               id="path3819"
               inkscape:connector-curvature="0" />
            <path
               style="fill:none;stroke:#000000;stroke-width:1.0462544px;stroke-linecap:butt;stroke-linejoin:miter;stroke-opacity:1"
               d="m -743.27864,471.98053 c 0.14726,7.93312 -0.46557,16.07365 0.57022,23.81891"
               id="path3821"
               inkscape:connector-curvature="0" />
            <path
               style="fill:none;stroke:#000000;stroke-width:1.0462544px;stroke-linecap:butt;stroke-linejoin:miter;stroke-opacity:1"
               d="m -731.87433,456.10126 c -0.48373,10.31645 0.57022,20.62387 0.57022,30.87636"
               id="path3823"
               inkscape:connector-curvature="0" />
            <path
               sodipodi:nodetypes="cc"
               style="fill:none;stroke:#000000;stroke-width:1.0462544px;stroke-linecap:butt;stroke-linejoin:miter;stroke-opacity:1"
               d="m -798.75251,433.07283 c 27.11593,-1.15606 33.84614,0.49615 51.56591,0.76282"
               id="path3825"
               inkscape:connector-curvature="0" />
            <path
               sodipodi:nodetypes="cc"
               style="fill:none;stroke:#000000;stroke-width:1.0462544px;stroke-linecap:butt;stroke-linejoin:miter;stroke-opacity:1"
               d="m -802.6646,448.65369 c 22.14898,-2.59356 33.46084,-1.62931 53.193,-0.76718"
               id="path3827"
               inkscape:connector-curvature="0" />
            <path
               sodipodi:nodetypes="cc"
               style="fill:none;stroke:#000000;stroke-width:1.0462544px;stroke-linecap:butt;stroke-linejoin:miter;stroke-opacity:1"
               d="m -798.35769,461.49041 c 9.99519,-0.64915 20.56812,0.24767 30.55979,-0.67982"
               id="path3831"
               inkscape:connector-curvature="0" />
            <path
               style="fill:none;stroke:#000000;stroke-width:1.0462544px;stroke-linecap:butt;stroke-linejoin:miter;stroke-opacity:1"
               d="m -763.8064,489.03605 c 12.47477,-1.05775 25.59174,-2.19829 38.20444,-3.52873"
               id="path3835"
               inkscape:connector-curvature="0" />
            <path
               style="fill:none;stroke:#000000;stroke-width:1.0462544px;stroke-linecap:butt;stroke-linejoin:miter;stroke-opacity:1"
               d="m -743.65878,473.7449 c 8.43905,-0.63811 16.87172,-1.24544 25.27955,-2.05843"
               id="path3837"
               inkscape:connector-curvature="0" />
            <path
               sodipodi:nodetypes="cc"
               style="fill:none;stroke:#000000;stroke-width:1.0462544;stroke-linecap:round;stroke-linejoin:round;stroke-miterlimit:4;stroke-opacity:1;stroke-dasharray:none"
               d="m -682.40381,520.53144 c -2.25678,1.90819 -3.16588,4.27398 -4.37165,8.38072"
               id="path3843"
               inkscape:connector-curvature="0" />
            <path
               sodipodi:nodetypes="cc"
               style="fill:none;stroke:#000000;stroke-width:1.0462544;stroke-linecap:round;stroke-linejoin:round;stroke-miterlimit:4;stroke-opacity:1;stroke-dasharray:none"
               d="m -676.26317,525.39561 c -2.882,3.3276 -2.99024,3.66678 -4.20103,7.51729"
               id="path3847"
               inkscape:connector-curvature="0" />
            <path
               sodipodi:nodetypes="cc"
               style="fill:none;stroke:#000000;stroke-width:1.0462544;stroke-linecap:round;stroke-linejoin:round;stroke-miterlimit:4;stroke-opacity:1;stroke-dasharray:none"
               d="m -669.07285,529.07137 c -2.98929,2.4335 -3.51562,5.15994 -4.95483,8.22152"
               id="path3849"
               inkscape:connector-curvature="0" />
            <path
               sodipodi:nodetypes="cc"
               style="fill:none;stroke:#000000;stroke-width:1.0462544;stroke-linecap:round;stroke-linejoin:round;stroke-miterlimit:4;stroke-opacity:1;stroke-dasharray:none"
               d="m -663.40958,533.41485 c -2.81504,5.39791 -3.97941,7.62545 -4.18158,7.84786"
               id="path3851"
               inkscape:connector-curvature="0" />
          </g>
        </g>
      </g>
    </g>
  </g>
</svg>
